<?xml version="1.0" encoding="UTF-8"?>
<svg width="200px" height="200px" viewBox="0 0 200 200" version="1.1" xmlns="http://www.w3.org/2000/svg" xmlns:xlink="http://www.w3.org/1999/xlink">
    <title>نظام المحاسبة</title>
    <defs>
        <linearGradient x1="0%" y1="0%" x2="100%" y2="100%" id="linearGradient-1">
            <stop stop-color="#4267B2" offset="0%"></stop>
            <stop stop-color="#365899" offset="100%"></stop>
        </linearGradient>
        <filter x="-10%" y="-10%" width="120%" height="120%" filterUnits="objectBoundingBox" id="filter-2">
            <feOffset dx="0" dy="2" in="SourceAlpha" result="shadowOffsetOuter1"></feOffset>
            <feGaussianBlur stdDeviation="2" in="shadowOffsetOuter1" result="shadowBlurOuter1"></feGaussianBlur>
            <feColorMatrix values="0 0 0 0 0   0 0 0 0 0   0 0 0 0 0  0 0 0 0.1 0" type="matrix" in="shadowBlurOuter1" result="shadowMatrixOuter1"></feColorMatrix>
            <feMerge>
                <feMergeNode in="shadowMatrixOuter1"></feMergeNode>
                <feMergeNode in="SourceGraphic"></feMergeNode>
            </feMerge>
        </filter>
    </defs>
    <g id="Logo" stroke="none" stroke-width="1" fill="none" fill-rule="evenodd">
        <circle id="Background" fill="url(#linearGradient-1)" cx="100" cy="100" r="90"></circle>
        <g id="Icon" filter="url(#filter-2)" transform="translate(40.000000, 40.000000)" fill="#FFFFFF">
            <path d="M60,0 C93.137085,0 120,26.862915 120,60 C120,93.137085 93.137085,120 60,120 C26.862915,120 0,93.137085 0,60 C0,26.862915 26.862915,0 60,0 Z M60,10 C32.3857625,10 10,32.3857625 10,60 C10,87.6142375 32.3857625,110 60,110 C87.6142375,110 110,87.6142375 110,60 C110,32.3857625 87.6142375,10 60,10 Z" id="Circle" fill-rule="nonzero"></path>
            <g id="Calculator" transform="translate(30.000000, 30.000000)">
                <rect id="Display" x="0" y="0" width="60" height="15" rx="2"></rect>
                <rect id="Button-1" x="0" y="20" width="15" height="15" rx="2"></rect>
                <rect id="Button-2" x="20" y="20" width="15" height="15" rx="2"></rect>
                <rect id="Button-3" x="40" y="20" width="15" height="15" rx="2"></rect>
                <rect id="Button-4" x="0" y="40" width="15" height="15" rx="2"></rect>
                <rect id="Button-5" x="20" y="40" width="15" height="15" rx="2"></rect>
                <rect id="Button-6" x="40" y="40" width="15" height="15" rx="2"></rect>
                <rect id="Button-7" x="0" y="60" width="15" height="15" rx="2"></rect>
                <rect id="Button-8" x="20" y="60" width="15" height="15" rx="2"></rect>
                <rect id="Button-9" x="40" y="60" width="15" height="15" rx="2"></rect>
            </g>
        </g>
        <text id="نظام-المحاسبة" font-family="Tajawal-Bold, Tajawal" font-size="16" font-weight="bold" fill="#FFFFFF">
            <tspan x="60" y="160">نظام المحاسبة</tspan>
        </text>
    </g>
</svg>
